/* XPM */
static char *wall_xpm[] = {
"64 64 3 1",
"0	c #FE00FE",
"1	c #000000",
"2	c #FFFFFF",
"0000000011111111000000001111111100000000111111110000000011111111",
"0000000011111111000000001111111100000000111111110000000011111111",
"0000000011111111000000001111111100000000111111110000000011111111",
"0000000011111111000000001111111100000000111111110000000011111111",
"0000000011111111000000001111111100000000111111110000000011111111",
"0000000011111111000000001111111100000000111111110000000011111111",
"0000000011111111000000001111111100000000111111110000000011111111",
"0000000011111111000000001111111100000000111111110000000011111111",
"1111111122222222222222222222222222222222000000001111111100000000",
"1111111122222222222222222222222222222222000000001111111100000000",
"1111111122222222222222222222222222222222000000001111111100000000",
"1111111122222222222222222222222222222222000000001111111100000000",
"1111111122222222222222222222222222222222000000001111111100000000",
"1111111122222222222222222222222222222222000000001111111100000000",
"1111111122222222222222222222222222222222000000001111111100000000",
"1111111122222222222222222222222222222222000000001111111100000000",
"0000000022222222000000001111111100000000111111110000000011111111",
"0000000022222222000000001111111100000000111111110000000011111111",
"0000000022222222000000001111111100000000111111110000000011111111",
"0000000022222222000000001111111100000000111111110000000011111111",
"0000000022222222000000001111111100000000111111110000000011111111",
"0000000022222222000000001111111100000000111111110000000011111111",
"0000000022222222000000001111111100000000111111110000000011111111",
"0000000022222222000000001111111100000000111111110000000011111111",
"1111111122222222222222222222222222222222000000001111111100000000",
"1111111122222222222222222222222222222222000000001111111100000000",
"1111111122222222222222222222222222222222000000001111111100000000",
"1111111122222222222222222222222222222222000000001111111100000000",
"1111111122222222222222222222222222222222000000001111111100000000",
"1111111122222222222222222222222222222222000000001111111100000000",
"1111111122222222222222222222222222222222000000001111111100000000",
"1111111122222222222222222222222222222222000000001111111100000000",
"0000000022222222000000001111111100000000111111110000000011111111",
"0000000022222222000000001111111100000000111111110000000011111111",
"0000000022222222000000001111111100000000111111110000000011111111",
"0000000022222222000000001111111100000000111111110000000011111111",
"0000000022222222000000001111111100000000111111110000000011111111",
"0000000022222222000000001111111100000000111111110000000011111111",
"0000000022222222000000001111111100000000111111110000000011111111",
"0000000022222222000000001111111100000000111111110000000011111111",
"1111111122222222222222222222222222222222000000001111111100000000",
"1111111122222222222222222222222222222222000000001111111100000000",
"1111111122222222222222222222222222222222000000001111111100000000",
"1111111122222222222222222222222222222222000000001111111100000000",
"1111111122222222222222222222222222222222000000001111111100000000",
"1111111122222222222222222222222222222222000000001111111100000000",
"1111111122222222222222222222222222222222000000001111111100000000",
"1111111122222222222222222222222222222222000000001111111100000000",
"0000000011111111000000001111111100000000111111110000000011111111",
"0000000011111111000000001111111100000000111111110000000011111111",
"0000000011111111000000001111111100000000111111110000000011111111",
"0000000011111111000000001111111100000000111111110000000011111111",
"0000000011111111000000001111111100000000111111110000000011111111",
"0000000011111111000000001111111100000000111111110000000011111111",
"0000000011111111000000001111111100000000111111110000000011111111",
"0000000011111111000000001111111100000000111111110000000011111111",
"1111111100000000111111110000000011111111000000001111111100000000",
"1111111100000000111111110000000011111111000000001111111100000000",
"1111111100000000111111110000000011111111000000001111111100000000",
"1111111100000000111111110000000011111111000000001111111100000000",
"1111111100000000111111110000000011111111000000001111111100000000",
"1111111100000000111111110000000011111111000000001111111100000000",
"1111111100000000111111110000000011111111000000001111111100000000",
"1111111100000000111111110000000011111111000000001111111100000000"
};
